<svg id="レイヤー_1" data-name="レイヤー 1" xmlns="http://www.w3.org/2000/svg" viewBox="0 0 618.73 206.44"><defs><style>.cls-1{fill:#fff;}.cls-2{fill:#c9a063;}.cls-3,.cls-5{fill:#604c3f;stroke:#604c3f;}.cls-3,.cls-4,.cls-5,.cls-6{stroke-miterlimit:10;}.cls-3,.cls-4{stroke-width:9px;}.cls-4,.cls-6{fill:#fbd6a9;stroke:#fbd6a9;}.cls-5,.cls-6{stroke-width:8.29px;}</style></defs><path class="cls-1" d="M396.61,210.69A36.93,36.93,0,0,1,363.23,190L349,160.63a101.53,101.53,0,0,1-4.47,10l-.39.72a34.59,34.59,0,0,1-30.77,17.77,39.69,39.69,0,0,1-29.1-12.42h0C272,193.75,255,202.78,235.05,202.78a58.06,58.06,0,0,1-32.57-9.62,42.16,42.16,0,0,1-34,17.06H57.88A42.35,42.35,0,0,1,15.51,168V53.62A41.92,41.92,0,0,1,57.88,11.25H168.47A42.09,42.09,0,0,1,208.29,39a34.07,34.07,0,0,1,28.8-15.83h30A41.18,41.18,0,0,1,307.3,54.73,39.19,39.19,0,0,1,324.25,51a42.21,42.21,0,0,1,5.17.32c1.83-19,17.36-33.86,36.19-33.86H459.9a42,42,0,0,1,34.64,17.71,34.91,34.91,0,0,1,8.69-1.1h77C604.62,34,623,53.47,623,79.25a140.08,140.08,0,0,1-8.93,49,37.92,37.92,0,0,1,13.2,29c0,20.82-17.45,38.41-38.1,38.41a35.77,35.77,0,0,1-20.47-6.49l-2.21-1.49c-17.68,11.48-38.74,18.68-62.63,21.4l-1.73.19h-2.35c-20.22,0-36.67-17.09-36.67-38.1a37.13,37.13,0,0,1,.92-8.28,102.79,102.79,0,0,1-28.93,14.71C432.75,196.34,416.32,210.69,396.61,210.69ZM499,109.18a97.2,97.2,0,0,1-10.71,26.9,37.54,37.54,0,0,1,6.25-1.53l.65-.1c22.24-3,36.93-11.19,44.75-25H503.23A33.67,33.67,0,0,1,499,109.18ZM398.44,92.83a35.75,35.75,0,0,1,4.39,6.3l.32.6,3.76,7.56c5.59-1.18,9.86-2.93,12.7-5.22,1.08-.88,3.68-3,5.33-9.24Z" transform="translate(-12.01 -7.75)"/><path class="cls-2" d="M168.47,14.75a38.4,38.4,0,0,1,38.7,35.19c3.82-13.64,15.6-23.32,29.92-23.32h30a37.79,37.79,0,0,1,37.57,33.6,35.23,35.23,0,0,1,19.56-5.76,36.45,36.45,0,0,1,8.51,1c0-.14,0-.27,0-.4,0-18.82,14.75-34.13,32.87-34.13H459.9a38.5,38.5,0,0,1,33.15,18.3,31.59,31.59,0,0,1,10.18-1.69h77c22.34,0,39.19,17.94,39.19,41.72a136.42,136.42,0,0,1-9.62,50.1l.39.26,1.25,1a34.44,34.44,0,0,1,12.25,26.61c0,18.92-15.85,34.91-34.6,34.91a32.29,32.29,0,0,1-18.48-5.86l-4.18-2.83c-17.62,11.94-38.77,19.37-63,22.13l-1.53.17h-2.16c-18.29,0-33.17-15.52-33.17-34.6A33.5,33.5,0,0,1,495.06,138l.61-.08c30.65-4.13,43.9-17.72,49.84-32H503.23a31.9,31.9,0,0,1-7-.77c-3.95,19.18-12.63,35.24-26,47.9-10.45,9.92-23.35,17.25-38.5,21.89-1,17.94-16.4,32.23-35.18,32.23a33.39,33.39,0,0,1-30.22-18.68l-17.7-36.42c-.19.12-.37.25-.57.36A105.46,105.46,0,0,1,341.37,169l-.36.68a31.11,31.11,0,0,1-27.69,15.92,35.83,35.83,0,0,1-29.38-14.81q-1.24,2-2.57,3.86c-11.5,16.13-27.52,24.65-46.32,24.65a54.13,54.13,0,0,1-33.45-11.06,38.89,38.89,0,0,1-33.13,18.5H57.88A38.84,38.84,0,0,1,19,168V53.62A38.46,38.46,0,0,1,57.88,14.75H168.47m38.87,68.62c1.62-1.13,3.28-2.22,5-3.22a33.61,33.61,0,0,1-5-10.27V83.37M405,111.21c7.47-1.25,13.12-3.4,16.86-6.42,1.59-1.29,5.77-4.66,7.41-15.46h-40a32.75,32.75,0,0,1,10.55,11.48l.26.48,4.93,9.92M168.47,7.75H57.88A45.38,45.38,0,0,0,12,53.62V168a45.85,45.85,0,0,0,45.87,45.72H168.47a45.58,45.58,0,0,0,34.79-15.94,61.86,61.86,0,0,0,31.79,8.5c19.86,0,36.92-8.4,49.58-24.35a43.45,43.45,0,0,0,28.69,10.65c14.37,0,27-7.3,33.81-19.52l0-.05,0,0,.36-.68,0,0,0-.05q.8-1.53,1.56-3.15l10.93,22.48a40.43,40.43,0,0,0,36.53,22.66c20.71,0,38.1-14.57,41.6-34a108.12,108.12,0,0,0,21.38-10.13c0,.35,0,.71,0,1.07,0,22.94,18,41.6,40.17,41.6h2.55l.39,0,1.53-.18c23.57-2.68,44.46-9.63,62.18-20.68l.31.2a39.25,39.25,0,0,0,22.43,7.09c22.55,0,41.6-19.19,41.6-41.91a41.53,41.53,0,0,0-12.6-30,143.73,143.73,0,0,0,8.33-48c0-13.29-4.66-25.57-13.12-34.57a44.87,44.87,0,0,0-33.07-14.15h-77a38.27,38.27,0,0,0-7.24.69,45.55,45.55,0,0,0-36.09-17.3H365.61c-19.49,0-35.75,14.5-39.19,33.59-.72,0-1.44,0-2.17,0A43.24,43.24,0,0,0,309.56,50a44.83,44.83,0,0,0-42.44-30.37h-30a37.38,37.38,0,0,0-28,12.5A45.64,45.64,0,0,0,168.47,7.75ZM405.26,96.33h14.63a9,9,0,0,1-2.48,3c-1.45,1.17-4,2.67-8.61,3.9l-2.51-5.07-.06-.11-.06-.11-.26-.48c-.21-.38-.42-.76-.65-1.14ZM495,130.94a101.57,101.57,0,0,0,6.65-18q.8,0,1.59,0H533.3c-7.82,9.64-20.47,15.56-38.31,18Z" transform="translate(-12.01 -7.75)"/><path class="cls-3" d="M57.88,190A21.81,21.81,0,0,1,36,168.24V53.86A21.63,21.63,0,0,1,57.88,32H168.47a21.63,21.63,0,0,1,21.86,21.87V168.24A21.81,21.81,0,0,1,168.47,190Zm100.27-31.87V143.7a14.14,14.14,0,0,1-6,1.32h-2.81v13.06Zm-40.34,0V145H106.34a77.06,77.06,0,0,1-5.07,13.06Zm-45.19,0a14.41,14.41,0,0,1-.09-13.18,14,14,0,0,1-4.17-1.2v14.38ZM68.36,115a14.14,14.14,0,0,1,6-1.32h3.92V100.25H74.34a14.14,14.14,0,0,1-6-1.32Zm83.81-1.32a14.14,14.14,0,0,1,6,1.32v-16a14.14,14.14,0,0,1-6,1.32h-2.81v13.38Zm-34.36,0V100.25H110v13.38ZM68.36,70.17a14.28,14.28,0,0,1,6-1.31h3.92a14.12,14.12,0,0,1,.91-5H68.36Zm83.81-1.31a14.28,14.28,0,0,1,6,1.31V63.86H145.4a15.09,15.09,0,0,1,3.1,5Zm-33.49,0a14.86,14.86,0,0,1,3.13-5H109.06a14.34,14.34,0,0,1,.9,5Z" transform="translate(-12.01 -7.75)"/><path class="cls-4" d="M168.47,180H57.88A11.71,11.71,0,0,1,46,168.24V53.86A11.76,11.76,0,0,1,57.88,42H168.47a11.76,11.76,0,0,1,11.86,11.87V168.24A11.71,11.71,0,0,1,168.47,180Zm-.32-122.13a3.79,3.79,0,0,0-3.8-4H62.15a3.79,3.79,0,0,0-3.79,4V164.29a3.65,3.65,0,0,0,3.79,3.79h102.2a3.65,3.65,0,0,0,3.8-3.79Zm-16,77.2H139.36v23.41c0,2.22-2.38,4.91-5.7,4.91-3.48,0-5.85-2.69-5.85-4.91V135H98.38a67.35,67.35,0,0,1-6.17,18.82A5.85,5.85,0,0,1,87,156.69a5.7,5.7,0,0,1-6-5.38,5.21,5.21,0,0,1,.63-2.21A52.76,52.76,0,0,0,86.68,135H74.34c-2.38,0-4.91-2.37-4.91-5.7s2.53-5.69,4.91-5.69H88.1c.16-1.9.16-4,.16-6V90.25H74.34c-2.38,0-4.91-2.38-4.91-5.7s2.53-5.69,4.91-5.69H88.26v-10c0-2.53,2.37-5.06,5.85-5.06S100,66.36,100,68.89v10h27.85V73.64c0-2.22,2.37-4.91,5.85-4.91,3.32,0,5.7,2.69,5.7,4.91v5.22h12.81c2.37,0,4.91,2.37,4.91,5.69s-2.54,5.7-4.91,5.7H139.36v33.38h12.81c2.37,0,4.91,2.37,4.91,5.69S154.54,135,152.17,135ZM127.81,90.25H100v27.37c0,2,0,4.11-.15,6h28Z" transform="translate(-12.01 -7.75)"/><path class="cls-5" d="M235.05,182.51c-22.88,0-38.86-17.9-38.86-43.52,0-17,6.71-30.94,19.41-40.42C225.72,91,239,86.82,254.18,86.33q.19-4.9.27-10.23H237.09c-8.11,0-14.23-7-14.23-16.26,0-9.11,6.12-16,14.23-16h30A20.73,20.73,0,0,1,287.9,64.5c0,8.34-.32,16.68-.95,24.91a173.15,173.15,0,0,1,20.44,5.49c.14-2.81.25-5.74.31-8.8.07-8.22,7.16-14.4,16.55-14.4s16.42,6.24,16.42,14.52v.15c-.11,7-.51,14.13-1.22,21.7a15.26,15.26,0,0,1,8.22,14c0,9.34-5.83,16.8-13.55,17.76a101.73,101.73,0,0,1-7.84,21.54l-.14.25a14.32,14.32,0,0,1-12.82,7.18c-11.22,0-18.16-8.22-18.16-15.83a14.85,14.85,0,0,1,1.15-5.61l.16-.38.18-.38a83.59,83.59,0,0,0,6.24-18.38A159.25,159.25,0,0,0,283.11,122c-3.39,19-8.52,33.1-15.59,43C259.23,176.62,248.31,182.51,235.05,182.51Zm15.72-63.61C231.26,120.72,229,132.72,229,138.11c0,7.49,1.94,11.28,5.75,11.28C239.78,149.39,246.55,141.17,250.77,118.9Z" transform="translate(-12.01 -7.75)"/><path class="cls-6" d="M332.42,130c-1.75,0-4.23-1.6-5.83-2.33-2.19,11.51-5.25,21.57-9.19,29.15a4.38,4.38,0,0,1-4.08,2c-3.93,0-8.16-2.48-8.16-5.83a5,5,0,0,1,.44-1.89c3.79-7.58,6.7-17.5,8.74-29-12.68-5.4-25.65-9.77-39.5-12-6.41,47.66-21.57,62.38-39.79,62.38-18.81,0-28.86-15.45-28.86-33.52,0-29.45,24.05-42.71,51-42.71,2.19,0,4.23.14,6.42.14.58-7.87.87-16.61.87-26.38a3.83,3.83,0,0,0-3.93-3.94H237.09c-2.48,0-4.23-2.47-4.23-6.26s1.75-6,4.23-6h30A10.63,10.63,0,0,1,277.9,64.5a314.34,314.34,0,0,1-1.75,33.24,166.19,166.19,0,0,1,40.09,11.07c.87-7.28,1.31-14.86,1.46-22.59,0-2.48,2.62-4.52,6.55-4.52s6.42,2,6.42,4.52c-.15,9.62-.88,19-1.9,27.84,2,1,4.08,2,6.13,2.92a5.29,5.29,0,0,1,2.77,5.1C337.67,126.31,335.48,130,332.42,130ZM256,108.67c-20.26,0-37,9.47-37,29.44,0,15.6,7.58,21.28,15.75,21.28,12,0,23-13.12,27.69-50.58C260.26,108.81,258.08,108.67,256,108.67Z" transform="translate(-12.01 -7.75)"/><path class="cls-3" d="M396.61,190.42a16.5,16.5,0,0,1-14.88-9l-27.79-57.15a14.17,14.17,0,0,1-1.5-6.31c0-9.12,8.45-17.12,18.07-17.12a16.47,16.47,0,0,1,14.32,8.38l.09.17,10,20.21c16.9-.87,29.21-4.59,37.53-11.31,9.69-7.82,14.4-20.4,14.4-38.45V72.56H365.61c-8.75,0-15.86-7.75-15.86-17.28s7.11-17.12,15.86-17.12H459.9A21.63,21.63,0,0,1,481.76,60V80c0,25.9-7.8,46.43-23.17,61-11.84,11.23-27.73,18.44-47.35,21.51l2.07,4.14a15,15,0,0,1,1.53,6.68C414.84,182.58,406.49,190.42,396.61,190.42Z" transform="translate(-12.01 -7.75)"/><path class="cls-4" d="M395.82,154l8.55,17.09a5.12,5.12,0,0,1,.47,2.21c0,3.64-3.95,7.12-8.23,7.12a6.57,6.57,0,0,1-5.85-3.32l-27.84-57.27a4.15,4.15,0,0,1-.48-1.9c0-3.48,4-7.12,8.07-7.12a6.54,6.54,0,0,1,5.54,3.17l12.81,25.78c42.4-.47,68-16.13,68-59.95V66.36a3.65,3.65,0,0,0-3.8-3.8H365.61c-2.85,0-5.86-2.85-5.86-7.28,0-4.27,3-7.12,5.86-7.12H459.9A11.76,11.76,0,0,1,471.76,60V80C471.76,127,443.6,151.63,395.82,154Z" transform="translate(-12.01 -7.75)"/><path class="cls-3" d="M499.75,189c-8.91,0-16.17-7.89-16.17-17.59A16.57,16.57,0,0,1,497.72,155l.22,0c41.7-5.62,64.87-27.75,69-65.84H503.23c-8.74,0-15.85-7.68-15.85-17.12s7.11-17.27,15.85-17.27h77c12.85,0,22.18,10.39,22.18,24.71a117.48,117.48,0,0,1-14.33,56.29l12,7.78.46.39a17.22,17.22,0,0,1,6.13,13.53c0,9.54-8.22,17.91-17.59,17.91a15.34,15.34,0,0,1-8.85-2.88l-14.38-9.73C549,177.2,527.42,186,501.52,188.94L501,189Z" transform="translate(-12.01 -7.75)"/><path class="cls-4" d="M589.14,165.39a5.5,5.5,0,0,1-3.17-1.1l-21-14.24c-15.18,15.34-36.7,25.78-64.54,28.95h-.64c-3.64,0-6.17-4-6.17-7.59a6.64,6.64,0,0,1,5.7-6.49c47-6.33,75.78-32.91,78.15-81.95v-.32a3.55,3.55,0,0,0-3.64-3.48H503.23c-2.84,0-5.85-2.84-5.85-7.12s3-7.27,5.85-7.27h77c7.91,0,12.18,6.64,12.18,14.71,0,20.41-6.17,42.56-18,59.33l19.77,12.81a7.23,7.23,0,0,1,2.53,5.85C596.73,161.28,593.09,165.39,589.14,165.39Z" transform="translate(-12.01 -7.75)"/></svg>